<svg width="32" height="32" viewBox="0 0 32 32" fill="none" xmlns="http://www.w3.org/2000/svg">
<g id="fi-rr-book-alt" clip-path="url(#clip0_50_123)">
<path id="Vector" d="M29.6 2.88396C28.8504 2.2572 27.9721 1.80315 27.0273 1.55405C26.0825 1.30495 25.0945 1.26691 24.1333 1.44263L19.0373 2.36796C17.8608 2.58402 16.7911 3.18933 16 4.08663C15.2069 3.18778 14.1341 2.58233 12.9547 2.36796L7.86667 1.44263C6.90554 1.26675 5.91751 1.3043 4.9725 1.5526C4.0275 1.8009 3.14862 2.25389 2.39809 2.8795C1.64756 3.50511 1.04371 4.28806 0.62931 5.17291C0.214904 6.05776 6.50833e-05 7.02288 0 7.99996L0 22.3906C7.66078e-05 23.9517 0.547969 25.4632 1.54818 26.6618C2.54839 27.8603 3.93748 28.6699 5.47333 28.9493L13.8547 30.4733C15.2733 30.7311 16.7267 30.7311 18.1453 30.4733L26.5333 28.9493C28.068 28.6685 29.4555 27.8583 30.4544 26.6599C31.4533 25.4615 32.0002 23.9507 32 22.3906V7.99996C32.0006 7.02322 31.7859 6.05836 31.371 5.17409C30.9562 4.28981 30.3515 3.50788 29.6 2.88396ZM14.6667 27.904C14.5547 27.888 14.4427 27.8693 14.3307 27.8493L5.95067 26.3266C5.02902 26.1589 4.19546 25.6731 3.59532 24.9538C2.99518 24.2345 2.66653 23.3274 2.66667 22.3906V7.99996C2.66667 6.9391 3.08809 5.92168 3.83824 5.17154C4.58839 4.42139 5.6058 3.99996 6.66667 3.99996C6.90812 4.00054 7.14905 4.0224 7.38667 4.0653L12.48 4.99863C13.0928 5.11077 13.647 5.43392 14.0465 5.91202C14.4459 6.39012 14.6653 6.99297 14.6667 7.61596V27.904ZM29.3333 22.3906C29.3335 23.3274 29.0048 24.2345 28.4047 24.9538C27.8045 25.6731 26.971 26.1589 26.0493 26.3266L17.6693 27.8493C17.5573 27.8693 17.4453 27.888 17.3333 27.904V7.61596C17.3332 6.99145 17.5523 6.3867 17.9524 5.90717C18.3525 5.42765 18.9082 5.10375 19.5227 4.99196L24.6173 4.05863C25.1943 3.95366 25.7873 3.97683 26.3543 4.12651C26.9213 4.27619 27.4485 4.54871 27.8984 4.92477C28.3484 5.30083 28.7102 5.77123 28.9582 6.30266C29.2061 6.83408 29.3342 7.41353 29.3333 7.99996V22.3906Z" fill="#374957"/>
</g>
<defs>
<clipPath id="clip0_50_123">
<rect width="32" height="32" fill="white"/>
</clipPath>
</defs>
</svg>
