<svg width="32" height="32" viewBox="0 0 32 32" fill="none" xmlns="http://www.w3.org/2000/svg">
<g id="fi-rr-heart" clip-path="url(#clip0_346_99)">
<path id="Vector" d="M23.3332 2.55538C21.8318 2.57873 20.3631 2.99785 19.0755 3.77041C17.788 4.54297 16.727 5.6416 15.9999 6.95538C15.2727 5.6416 14.2118 4.54297 12.9242 3.77041C11.6366 2.99785 10.1679 2.57873 8.66653 2.55538C6.27312 2.65937 4.01814 3.70639 2.39424 5.46769C0.770342 7.22899 -0.090471 9.56141 -0.000136992 11.9554C-0.000136992 18.018 6.3812 24.6394 11.7332 29.1287C12.9282 30.1329 14.439 30.6834 15.9999 30.6834C17.5607 30.6834 19.0716 30.1329 20.2665 29.1287C25.6185 24.6394 31.9999 18.018 31.9999 11.9554C32.0902 9.56141 31.2294 7.22899 29.6055 5.46769C27.9816 3.70639 25.7266 2.65937 23.3332 2.55538ZM18.5532 27.0887C17.8385 27.6905 16.9342 28.0206 15.9999 28.0206C15.0655 28.0206 14.1612 27.6905 13.4465 27.0887C6.59586 21.3407 2.66653 15.826 2.66653 11.9554C2.57538 10.2683 3.15502 8.61369 4.27901 7.35231C5.40301 6.09094 6.98018 5.32518 8.66653 5.22205C10.3529 5.32518 11.93 6.09094 13.054 7.35231C14.178 8.61369 14.7577 10.2683 14.6665 11.9554C14.6665 12.309 14.807 12.6481 15.0571 12.8982C15.3071 13.1482 15.6462 13.2887 15.9999 13.2887C16.3535 13.2887 16.6926 13.1482 16.9427 12.8982C17.1927 12.6481 17.3332 12.309 17.3332 11.9554C17.2421 10.2683 17.8217 8.61369 18.9457 7.35231C20.0697 6.09094 21.6468 5.32518 23.3332 5.22205C25.0196 5.32518 26.5967 6.09094 27.7207 7.35231C28.8447 8.61369 29.4243 10.2683 29.3332 11.9554C29.3332 15.826 25.4039 21.3407 18.5532 27.0834V27.0887Z" fill="#374957"/>
</g>
<defs>
<clipPath id="clip0_346_99">
<rect width="32" height="32" fill="white"/>
</clipPath>
</defs>
</svg>
