<svg width="32" height="32" viewBox="0 0 32 32" fill="none" xmlns="http://www.w3.org/2000/svg">
<g id="fi-rr-edit" clip-path="url(#clip0_346_57)">
<path id="Vector" d="M24.875 1.24031L8.61902 17.4963C7.99814 18.1138 7.50592 18.8484 7.17086 19.6574C6.8358 20.4665 6.66455 21.334 6.66702 22.2096V24.0003C6.66702 24.3539 6.80749 24.6931 7.05754 24.9431C7.30759 25.1932 7.64673 25.3336 8.00035 25.3336H9.79102C10.6667 25.3361 11.5342 25.1649 12.3432 24.8298C13.1523 24.4947 13.8868 24.0025 14.5044 23.3816L30.7603 7.12565C31.5395 6.34454 31.9771 5.28628 31.9771 4.18298C31.9771 3.07968 31.5395 2.02142 30.7603 1.24031C29.9679 0.482837 28.9139 0.060112 27.8177 0.060112C26.7215 0.060112 25.6674 0.482837 24.875 1.24031ZM28.875 5.24031L12.619 21.4963C11.8672 22.2436 10.851 22.6642 9.79102 22.667H9.33369V22.2096C9.33646 21.1496 9.75711 20.1335 10.5044 19.3816L26.7604 3.12565C27.0451 2.85359 27.4238 2.70177 27.8177 2.70177C28.2115 2.70177 28.5902 2.85359 28.875 3.12565C29.1549 3.40633 29.3121 3.78657 29.3121 4.18298C29.3121 4.57939 29.1549 4.95963 28.875 5.24031Z" fill="#374957"/>
<path id="Vector_2" d="M30.6667 11.972C30.313 11.972 29.9739 12.1125 29.7239 12.3625C29.4738 12.6126 29.3333 12.9517 29.3333 13.3053V20H24C22.9391 20 21.9217 20.4214 21.1716 21.1716C20.4214 21.9217 20 22.9391 20 24V29.3333H6.66667C5.6058 29.3333 4.58839 28.9119 3.83824 28.1618C3.08809 27.4116 2.66667 26.3942 2.66667 25.3333V6.66667C2.66667 5.6058 3.08809 4.58839 3.83824 3.83824C4.58839 3.08809 5.6058 2.66667 6.66667 2.66667H18.7227C19.0763 2.66667 19.4154 2.52619 19.6655 2.27614C19.9155 2.02609 20.056 1.68696 20.056 1.33333C20.056 0.979711 19.9155 0.640573 19.6655 0.390524C19.4154 0.140476 19.0763 0 18.7227 0L6.66667 0C4.89921 0.00211714 3.20474 0.705176 1.95496 1.95496C0.705176 3.20474 0.00211714 4.89921 0 6.66667L0 25.3333C0.00211714 27.1008 0.705176 28.7953 1.95496 30.045C3.20474 31.2948 4.89921 31.9979 6.66667 32H21.7907C22.6666 32.0025 23.5342 31.8313 24.3435 31.4962C25.1528 31.1612 25.8876 30.6689 26.5053 30.048L30.0467 26.504C30.6677 25.8865 31.1601 25.152 31.4953 24.3429C31.8306 23.5339 32.0022 22.6664 32 21.7907V13.3053C32 12.9517 31.8595 12.6126 31.6095 12.3625C31.3594 12.1125 31.0203 11.972 30.6667 11.972ZM24.62 28.1627C24.084 28.6973 23.4062 29.0675 22.6667 29.2293V24C22.6667 23.6464 22.8071 23.3072 23.0572 23.0572C23.3072 22.8071 23.6464 22.6667 24 22.6667H29.2333C29.0684 23.4047 28.6987 24.0812 28.1667 24.6187L24.62 28.1627Z" fill="#374957"/>
</g>
<defs>
<clipPath id="clip0_346_57">
<rect width="32" height="32" fill="white"/>
</clipPath>
</defs>
</svg>
