<svg width="32" height="32" viewBox="0 0 32 32" fill="none" xmlns="http://www.w3.org/2000/svg">
<g id="fi-rr-settings" clip-path="url(#clip0_346_70)">
<path id="Vector" d="M16.0001 10.6675C14.9453 10.6675 13.9141 10.9803 13.037 11.5663C12.16 12.1523 11.4764 12.9853 11.0727 13.9598C10.6691 14.9344 10.5634 16.0067 10.7692 17.0413C10.975 18.0759 11.483 19.0262 12.2288 19.7721C12.9747 20.5179 13.925 21.0259 14.9596 21.2317C15.9942 21.4375 17.0665 21.3318 18.0411 20.9282C19.0156 20.5245 19.8486 19.8409 20.4346 18.9639C21.0206 18.0868 21.3334 17.0556 21.3334 16.0008C21.3334 14.5863 20.7715 13.2298 19.7713 12.2296C18.7711 11.2294 17.4146 10.6675 16.0001 10.6675ZM16.0001 18.6675C15.4727 18.6675 14.9571 18.5111 14.5186 18.2181C14.08 17.925 13.7382 17.5086 13.5364 17.0213C13.3346 16.534 13.2818 15.9979 13.3847 15.4806C13.4876 14.9633 13.7415 14.4881 14.1145 14.1152C14.4874 13.7423 14.9626 13.4883 15.4798 13.3854C15.9971 13.2825 16.5333 13.3353 17.0206 13.5371C17.5078 13.739 17.9243 14.0808 18.2173 14.5193C18.5104 14.9578 18.6668 15.4734 18.6668 16.0008C18.6668 16.7081 18.3858 17.3863 17.8857 17.8864C17.3856 18.3865 16.7073 18.6675 16.0001 18.6675Z" fill="#374957"/>
<path id="Vector_2" d="M28.3921 18.5333L27.8001 18.192C28.0666 16.7419 28.0666 15.2554 27.8001 13.8053L28.3921 13.464C28.8473 13.2013 29.2464 12.8516 29.5665 12.4347C29.8865 12.0179 30.1214 11.542 30.2576 11.0344C30.3938 10.5268 30.4286 9.9973 30.3602 9.4762C30.2918 8.95509 30.1214 8.45257 29.8587 7.99732C29.5961 7.54207 29.2463 7.14301 28.8295 6.82292C28.4126 6.50284 27.9368 6.26799 27.4291 6.1318C26.9215 5.99561 26.392 5.96073 25.8709 6.02917C25.3498 6.0976 24.8473 6.26801 24.3921 6.53065L23.7987 6.87332C22.6781 5.91588 21.3903 5.17365 20.0001 4.68398V3.99998C20.0001 2.93912 19.5786 1.9217 18.8285 1.17156C18.0783 0.421412 17.0609 -1.52588e-05 16.0001 -1.52588e-05C14.9392 -1.52588e-05 13.9218 0.421412 13.1716 1.17156C12.4215 1.9217 12.0001 2.93912 12.0001 3.99998V4.68398C10.6099 5.17541 9.32252 5.91945 8.20272 6.87865L7.60672 6.53332C6.68731 6.00289 5.59483 5.85941 4.56963 6.13447C3.54444 6.40952 2.67049 7.08057 2.14006 7.99998C1.60962 8.9194 1.46615 10.0119 1.74121 11.0371C2.01626 12.0623 2.68731 12.9362 3.60672 13.4667L4.19872 13.808C3.9322 15.2581 3.9322 16.7446 4.19872 18.1947L3.60672 18.536C2.68731 19.0664 2.01626 19.9404 1.74121 20.9656C1.46615 21.9908 1.60962 23.0832 2.14006 24.0027C2.67049 24.9221 3.54444 25.5931 4.56963 25.8682C5.59483 26.1432 6.68731 25.9998 7.60672 25.4693L8.20006 25.1267C9.32108 26.0842 10.6094 26.8265 12.0001 27.316V28C12.0001 29.0609 12.4215 30.0783 13.1716 30.8284C13.9218 31.5786 14.9392 32 16.0001 32C17.0609 32 18.0783 31.5786 18.8285 30.8284C19.5786 30.0783 20.0001 29.0609 20.0001 28V27.316C21.3902 26.8246 22.6776 26.0805 23.7974 25.1213L24.3934 25.4653C25.3128 25.9958 26.4053 26.1392 27.4305 25.8642C28.4557 25.5891 29.3296 24.9181 29.8601 23.9987C30.3905 23.0792 30.534 21.9868 30.2589 20.9616C29.9839 19.9364 29.3128 19.0624 28.3934 18.532L28.3921 18.5333ZM24.9947 13.4987C25.4463 15.1347 25.4463 16.8626 24.9947 18.4987C24.9159 18.7834 24.9339 19.0863 25.0458 19.3597C25.1578 19.6332 25.3575 19.8617 25.6134 20.0093L27.0587 20.844C27.3651 21.0208 27.5888 21.3121 27.6804 21.6538C27.7721 21.9955 27.7242 22.3596 27.5474 22.666C27.3706 22.9724 27.0793 23.196 26.7376 23.2877C26.3959 23.3793 26.0318 23.3315 25.7254 23.1547L24.2774 22.3173C24.0213 22.169 23.723 22.1101 23.4297 22.1499C23.1364 22.1897 22.8647 22.326 22.6574 22.5373C21.4706 23.7489 19.9755 24.6133 18.3334 25.0373C18.0468 25.111 17.7928 25.278 17.6115 25.5119C17.4302 25.7458 17.3319 26.0334 17.3321 26.3293V28C17.3321 28.3536 17.1916 28.6927 16.9415 28.9428C16.6915 29.1928 16.3523 29.3333 15.9987 29.3333C15.6451 29.3333 15.306 29.1928 15.0559 28.9428C14.8059 28.6927 14.6654 28.3536 14.6654 28V26.3307C14.6655 26.0347 14.5672 25.7471 14.3859 25.5132C14.2046 25.2793 13.9507 25.1123 13.6641 25.0387C12.0219 24.6129 10.5272 23.7466 9.34139 22.5333C9.13409 22.322 8.86237 22.1857 8.56907 22.1459C8.27576 22.1061 7.97753 22.165 7.72139 22.3133L6.27606 23.1493C6.12436 23.2382 5.95658 23.2963 5.78236 23.3201C5.60814 23.3439 5.43093 23.3331 5.26093 23.2881C5.09093 23.2432 4.9315 23.165 4.79182 23.0582C4.65214 22.9514 4.53496 22.818 4.44704 22.6658C4.35912 22.5135 4.30218 22.3453 4.27952 22.1709C4.25686 21.9966 4.26891 21.8194 4.31498 21.6497C4.36105 21.48 4.44023 21.3211 4.54797 21.1822C4.6557 21.0432 4.78986 20.9269 4.94272 20.84L6.38806 20.0053C6.64399 19.8577 6.84362 19.6292 6.9556 19.3557C7.06758 19.0823 7.08557 18.7794 7.00672 18.4947C6.5552 16.8586 6.5552 15.1307 7.00672 13.4947C7.08415 13.2105 7.06531 12.9087 6.95314 12.6364C6.84098 12.3641 6.64181 12.1365 6.38672 11.9893L4.94139 11.1547C4.63498 10.9778 4.41135 10.6865 4.31971 10.3449C4.22807 10.0032 4.27591 9.63906 4.45272 9.33265C4.62953 9.02624 4.92083 8.80261 5.26252 8.71097C5.60421 8.61933 5.96831 8.66717 6.27472 8.84398L7.72272 9.68132C7.97816 9.83 8.27576 9.8896 8.56876 9.85074C8.86176 9.81189 9.13354 9.67678 9.34139 9.46665C10.5282 8.25511 12.0233 7.39068 13.6654 6.96665C13.9529 6.89274 14.2075 6.72499 14.3889 6.48999C14.5703 6.25499 14.6681 5.96617 14.6667 5.66932V3.99998C14.6667 3.64636 14.8072 3.30722 15.0572 3.05718C15.3073 2.80713 15.6464 2.66665 16.0001 2.66665C16.3537 2.66665 16.6928 2.80713 16.9429 3.05718C17.1929 3.30722 17.3334 3.64636 17.3334 3.99998V5.66932C17.3332 5.96526 17.4316 6.25284 17.6129 6.48676C17.7941 6.72067 18.0481 6.88763 18.3347 6.96132C19.9774 7.38685 21.4726 8.25316 22.6587 9.46665C22.866 9.67794 23.1377 9.81424 23.4311 9.85407C23.7244 9.89391 24.0226 9.835 24.2787 9.68665L25.7241 8.85065C25.8758 8.76172 26.0435 8.70368 26.2178 8.67985C26.392 8.65603 26.5692 8.66691 26.7392 8.71185C26.9092 8.7568 27.0686 8.83492 27.2083 8.94174C27.348 9.04855 27.4652 9.18193 27.5531 9.33422C27.641 9.4865 27.6979 9.65466 27.7206 9.82904C27.7433 10.0034 27.7312 10.1805 27.6851 10.3502C27.6391 10.5199 27.5599 10.6788 27.4521 10.8178C27.3444 10.9568 27.2103 11.0731 27.0574 11.16L25.6121 11.9947C25.3575 12.1423 25.1588 12.37 25.0472 12.6422C24.9355 12.9145 24.9171 13.2161 24.9947 13.5V13.4987Z" fill="#374957"/>
</g>
<defs>
<clipPath id="clip0_346_70">
<rect width="32" height="32" fill="white"/>
</clipPath>
</defs>
</svg>
