<svg width="32" height="32" viewBox="0 0 32 32" fill="none" xmlns="http://www.w3.org/2000/svg">
<g id="fi-rr-settings" clip-path="url(#clip0_346_64)">
<path id="Vector" d="M25.3333 0H6.66667C4.89921 0.00211714 3.20474 0.705176 1.95496 1.95496C0.705176 3.20474 0.00211714 4.89921 0 6.66667L0 25.3333C0.00211714 27.1008 0.705176 28.7953 1.95496 30.045C3.20474 31.2948 4.89921 31.9979 6.66667 32H25.3333C27.1008 31.9979 28.7953 31.2948 30.045 30.045C31.2948 28.7953 31.9979 27.1008 32 25.3333V6.66667C31.9979 4.89921 31.2948 3.20474 30.045 1.95496C28.7953 0.705176 27.1008 0.00211714 25.3333 0V0ZM9.33333 29.3333V28C9.33333 26.2319 10.0357 24.5362 11.286 23.286C12.5362 22.0357 14.2319 21.3333 16 21.3333C17.7681 21.3333 19.4638 22.0357 20.714 23.286C21.9643 24.5362 22.6667 26.2319 22.6667 28V29.3333H9.33333ZM29.3333 25.3333C29.3333 26.3942 28.9119 27.4116 28.1618 28.1618C27.4116 28.9119 26.3942 29.3333 25.3333 29.3333V28C25.3333 25.5246 24.35 23.1507 22.5997 21.4003C20.8493 19.65 18.4754 18.6667 16 18.6667C13.5246 18.6667 11.1507 19.65 9.40034 21.4003C7.65 23.1507 6.66667 25.5246 6.66667 28V29.3333C5.6058 29.3333 4.58839 28.9119 3.83824 28.1618C3.08809 27.4116 2.66667 26.3942 2.66667 25.3333V6.66667C2.66667 5.6058 3.08809 4.58839 3.83824 3.83824C4.58839 3.08809 5.6058 2.66667 6.66667 2.66667H25.3333C26.3942 2.66667 27.4116 3.08809 28.1618 3.83824C28.9119 4.58839 29.3333 5.6058 29.3333 6.66667V25.3333Z" fill="#374957"/>
<path id="Vector_2" d="M16.0001 5.33374C14.9453 5.33374 13.9141 5.64653 13.037 6.23257C12.16 6.8186 11.4764 7.65156 11.0727 8.6261C10.6691 9.60064 10.5634 10.673 10.7692 11.7076C10.975 12.7421 11.483 13.6924 12.2288 14.4383C12.9747 15.1842 13.925 15.6921 14.9596 15.8979C15.9942 16.1037 17.0665 15.9981 18.0411 15.5944C19.0156 15.1908 19.8486 14.5072 20.4346 13.6301C21.0206 12.7531 21.3334 11.7219 21.3334 10.6671C21.3334 9.25259 20.7715 7.89603 19.7713 6.89584C18.7711 5.89564 17.4146 5.33374 16.0001 5.33374ZM16.0001 13.3337C15.4727 13.3337 14.9571 13.1773 14.5186 12.8843C14.08 12.5913 13.7382 12.1748 13.5364 11.6876C13.3346 11.2003 13.2818 10.6641 13.3847 10.1468C13.4876 9.62955 13.7415 9.1544 14.1145 8.78146C14.4874 8.40852 14.9626 8.15454 15.4798 8.05165C15.9971 7.94875 16.5333 8.00156 17.0206 8.20339C17.5078 8.40523 17.9243 8.74702 18.2173 9.18555C18.5104 9.62408 18.6668 10.1397 18.6668 10.6671C18.6668 11.3743 18.3858 12.0526 17.8857 12.5527C17.3856 13.0528 16.7073 13.3337 16.0001 13.3337Z" fill="#374957"/>
</g>
<defs>
<clipPath id="clip0_346_64">
<rect width="32" height="32" fill="white"/>
</clipPath>
</defs>
</svg>
